<svg width="210" height="76" viewBox="0 0 210 76" fill="none" xmlns="http://www.w3.org/2000/svg">
<g clip-path="url(#clip0_5_23)">
<path d="M93.24 19.85L92.43 24.53H83.97L83.31 28.25H89.52L88.74 32.72H82.53L81.06 41H75.15L78.9 19.85H93.24ZM98.2064 22.61C97.2864 22.61 96.5564 22.38 96.0164 21.92C95.4964 21.46 95.2364 20.87 95.2364 20.15C95.2364 19.51 95.4064 18.92 95.7464 18.38C96.1064 17.82 96.5864 17.38 97.1864 17.06C97.8064 16.72 98.4964 16.55 99.2564 16.55C100.176 16.55 100.896 16.79 101.416 17.27C101.956 17.73 102.226 18.33 102.226 19.07C102.226 19.71 102.046 20.3 101.686 20.84C101.346 21.38 100.866 21.81 100.246 22.13C99.6264 22.45 98.9464 22.61 98.2064 22.61ZM100.846 24.17L97.8764 41H91.9664L94.9664 24.17H100.846ZM115.235 24.02C116.875 24.02 118.155 24.5 119.075 25.46C120.015 26.4 120.485 27.71 120.485 29.39C120.485 29.95 120.425 30.55 120.305 31.19L118.565 41H112.685L114.275 31.97C114.335 31.67 114.365 31.4 114.365 31.16C114.365 30.44 114.155 29.88 113.735 29.48C113.335 29.08 112.765 28.88 112.025 28.88C111.185 28.88 110.475 29.14 109.895 29.66C109.315 30.18 108.925 30.9 108.725 31.82L107.105 41H101.195L104.195 24.17H110.075L109.655 26.57C110.315 25.81 111.125 25.2 112.085 24.74C113.045 24.26 114.095 24.02 115.235 24.02ZM122.301 32.57C122.621 30.83 123.211 29.31 124.071 28.01C124.931 26.71 125.971 25.71 127.191 25.01C128.411 24.31 129.691 23.96 131.031 23.96C132.111 23.96 133.031 24.19 133.791 24.65C134.571 25.09 135.131 25.7 135.471 26.48L136.821 18.8H142.731L138.801 41H132.891L133.341 38.66C132.741 39.44 131.981 40.06 131.061 40.52C130.141 40.98 129.111 41.21 127.971 41.21C126.211 41.21 124.791 40.63 123.711 39.47C122.651 38.29 122.121 36.69 122.121 34.67C122.121 34.01 122.181 33.31 122.301 32.57ZM134.421 32.57C134.481 32.27 134.511 31.99 134.511 31.73C134.511 30.89 134.271 30.24 133.791 29.78C133.331 29.32 132.731 29.09 131.991 29.09C131.111 29.09 130.321 29.4 129.621 30.02C128.921 30.62 128.481 31.47 128.301 32.57C128.241 32.87 128.211 33.16 128.211 33.44C128.211 34.28 128.441 34.93 128.901 35.39C129.381 35.85 129.991 36.08 130.731 36.08C131.611 36.08 132.401 35.77 133.101 35.15C133.801 34.53 134.241 33.67 134.421 32.57ZM160.242 19.85L159.432 24.53H150.972L150.312 28.25H156.522L155.742 32.72H149.532L148.062 41H142.152L145.902 19.85H160.242ZM165.208 22.61C164.288 22.61 163.558 22.38 163.018 21.92C162.498 21.46 162.238 20.87 162.238 20.15C162.238 19.51 162.408 18.92 162.748 18.38C163.108 17.82 163.588 17.38 164.188 17.06C164.808 16.72 165.498 16.55 166.258 16.55C167.178 16.55 167.898 16.79 168.418 17.27C168.958 17.73 169.228 18.33 169.228 19.07C169.228 19.71 169.048 20.3 168.688 20.84C168.348 21.38 167.868 21.81 167.248 22.13C166.628 22.45 165.948 22.61 165.208 22.61ZM167.848 24.17L164.878 41H158.968L161.968 24.17H167.848ZM178.037 18.8L174.107 41H168.197L172.127 18.8H178.037ZM202.415 24.02C204.235 24.02 205.635 24.5 206.615 25.46C207.615 26.42 208.115 27.75 208.115 29.45C208.115 30.11 208.065 30.69 207.965 31.19L206.225 41H200.375L201.965 31.97C202.005 31.65 202.025 31.43 202.025 31.31C202.025 30.61 201.815 30.07 201.395 29.69C200.995 29.31 200.425 29.12 199.685 29.12C198.885 29.12 198.195 29.34 197.615 29.78C197.055 30.2 196.675 30.8 196.475 31.58L194.795 41H188.915L190.505 31.97C190.545 31.81 190.565 31.57 190.565 31.25C190.565 30.57 190.355 30.05 189.935 29.69C189.535 29.31 188.975 29.12 188.255 29.12C187.415 29.12 186.705 29.36 186.125 29.84C185.545 30.3 185.155 30.96 184.955 31.82L183.335 41H177.425L180.425 24.17H186.305L185.915 26.36C186.535 25.64 187.295 25.07 188.195 24.65C189.115 24.23 190.125 24.02 191.225 24.02C192.465 24.02 193.515 24.29 194.375 24.83C195.255 25.37 195.885 26.13 196.265 27.11C197.025 26.19 197.945 25.45 199.025 24.89C200.105 24.31 201.235 24.02 202.415 24.02Z" fill="#FFC700"/>
<path d="M44.56 5.65L42.67 16.57H22.93L21.39 25.25H35.88L34.06 35.68H19.57L16.14 55H2.35003L11.1 5.65H44.56Z" fill="#FFC700"/>
<path d="M44.625 5.60861L37.6793 14.2444L50.7262 29.0581L45.2302 35.9507L35.6533 25.0768L29.0291 33.3362L38.606 44.2101L26.3745 59.5534L35.4888 69.902L66.7399 30.7184L44.625 5.60861Z" fill="white"/>
</g>
<defs>
<clipPath id="clip0_5_23">
<rect width="210" height="76" fill="white"/>
</clipPath>
</defs>
</svg>
